<?xml version="1.0" encoding="UTF-8" standalone="no"?>
<svg width="249px" height="78px" viewBox="0 0 249 78" version="1.1" xmlns="http://www.w3.org/2000/svg" xmlns:xlink="http://www.w3.org/1999/xlink">
    <!-- Generator: Sketch 3.7 (28169) - http://www.bohemiancoding.com/sketch -->
    <title>选中框</title>
    <desc>Created with Sketch.</desc>
    <defs>
        <rect id="path-1" x="0" y="0" width="248.995984" height="78"></rect>
        <mask id="mask-2" maskContentUnits="userSpaceOnUse" maskUnits="objectBoundingBox" x="0" y="0" width="248.995984" height="78" fill="white">
            <use xlink:href="#path-1"></use>
        </mask>
    </defs>
    <g id="移动版" stroke="none" stroke-width="1" fill="none" fill-rule="evenodd">
        <g id="确认订单" transform="translate(-321.000000, -835.000000)">
            <g id="微信支付" transform="translate(321.000000, 835.000000)">
                <g id="选中框">
                    <use id="Rectangle-32-Copy-2" stroke="#608FF7" mask="url(#mask-2)" stroke-width="2" xlink:href="#path-1"></use>
                    <polygon id="Rectangle-93" fill="#608FF7" points="248 53 248 77 224 77"></polygon>
                    <path d="M239.279845,71.4115326 L245.013375,66.1798563 C245.013375,66.1798563 245.398029,65.8320454 245.734108,66.1037699 C245.833861,66.1850624 245.949396,66.4165088 245.689494,66.7792906 L239.703203,73.7247013 C239.703203,73.7247013 239.244385,74.3469032 238.699582,73.7182 L236.116038,70.2633543 C236.116038,70.2633543 235.80951,69.7952681 236.192856,69.5150614 C236.322814,69.4214136 236.616868,69.2744978 236.977241,69.5943731 L239.279845,71.4115326 Z" id="iconfont-duihao" fill="#FFFFFF"></path>
                </g>
            </g>
        </g>
    </g>
</svg>