<?xml version="1.0" encoding="UTF-8" standalone="no"?>
<svg width="42px" height="40px" viewBox="0 0 42 40" version="1.1" xmlns="http://www.w3.org/2000/svg" xmlns:xlink="http://www.w3.org/1999/xlink">
    <!-- Generator: Sketch 3.7 (28169) - http://www.bohemiancoding.com/sketch -->
    <title>购物车</title>
    <desc>Created with Sketch.</desc>
    <defs></defs>
    <g id="移动版" stroke="none" stroke-width="1" fill="none" fill-rule="evenodd">
        <g id="详情页" transform="translate(-676.000000, -64.000000)" fill="#747474">
            <g id="购物车" transform="translate(676.000000, 64.000000)">
                <path d="M15.8171176,32.8031579 C15.4938824,32.8031579 15.1685882,32.8810526 14.8618235,33.0452632 C14.3759412,33.3084211 14.0177059,33.7484211 13.8550588,34.2852632 C13.6924118,34.8221053 13.7438824,35.3905263 14.0012353,35.8873684 C14.2565294,36.3863158 14.6868235,36.7505263 15.2118235,36.9189474 C15.7388824,37.0873684 16.2947647,37.0305263 16.7806471,36.7694737 C17.2685882,36.5063158 17.6247647,36.0684211 17.7874118,35.5294737 C17.9500588,34.9947368 17.8985882,34.4242105 17.6432941,33.9273684 C17.2747647,33.2115789 16.5562353,32.8031579 15.8171176,32.8031579 M15.8274118,39.1189474 C15.4177059,39.1189474 15.0038824,39.0557895 14.6024118,38.9294737 C13.5524118,38.5947368 12.6918235,37.8642105 12.1791765,36.8705263 C11.6665294,35.8768421 11.5635882,34.7357895 11.8888824,33.6621053 C12.2141765,32.5884211 12.9285882,31.7063158 13.9003529,31.1821053 C15.9159412,30.1021053 18.4050588,30.8936842 19.4632941,32.9442105 L19.4632941,32.9442105 C19.978,33.94 20.0788824,35.0789474 19.7535882,36.1526316 C19.4282941,37.2284211 18.7138824,38.1084211 17.7400588,38.6326316 C17.1409412,38.9547368 16.4862353,39.1189474 15.8274118,39.1189474" id="Fill-1"></path>
                <path d="M31.6603824,32.8021053 C30.5239118,32.8021053 29.6015588,33.7473684 29.6015588,34.9073684 C29.6015588,36.0673684 30.5239118,37.0126316 31.6603824,37.0126316 C32.7968529,37.0126316 33.7192059,36.0673684 33.7192059,34.9073684 C33.7192059,33.7473684 32.7968529,32.8021053 31.6603824,32.8021053 M31.6603824,39.1178947 C29.3895,39.1178947 27.5427353,37.2294737 27.5427353,34.9073684 C27.5427353,32.5852632 29.3895,30.6968421 31.6603824,30.6968421 C33.9312647,30.6968421 35.7780294,32.5852632 35.7780294,34.9073684 C35.7780294,37.2294737 33.9312647,39.1178947 31.6603824,39.1178947" id="Fill-3"></path>
                <polygon id="Fill-5" points="36.6849412 29.8385263 10.297 29.8385263 3.66758824 4.00484211 0.000823529412 2.05957895 0.949941176 0.190105263 5.42788235 2.56905263 11.8843529 27.7332632 36.6849412 27.7332632"></polygon>
                <polygon id="Fill-7" points="36.9260294 29.8385263 10.2580882 29.8385263 10.2580882 27.7332632 35.3016176 27.7332632 39.0404412 11.6553684 6.02514706 11.6553684 6.02514706 9.55010526 41.6469118 9.55010526"></polygon>
                <polygon id="Fill-9" points="25.9403529 11.3650526 24.5218235 9.83873684 31.878 2.67873684 37.1753529 9.97557895 35.5221176 11.2303158 31.6124118 5.84505263"></polygon>
                <polygon id="Fill-11" points="11.6412059 11.1265263 9.85620588 10.0781053 15.5200294 0.000210526316 27.6341471 8.06968421 26.5120882 9.83389474 16.2200294 2.97915789"></polygon>
            </g>
        </g>
    </g>
</svg>