<?xml version="1.0" encoding="UTF-8" standalone="no"?>
<svg width="60px" height="60px" viewBox="0 0 60 60" version="1.1" xmlns="http://www.w3.org/2000/svg" xmlns:xlink="http://www.w3.org/1999/xlink">
    <!-- Generator: Sketch 3.7 (28169) - http://www.bohemiancoding.com/sketch -->
    <title>送装同步</title>
    <desc>Created with Sketch.</desc>
    <defs>
        <polygon id="path-1" points="10.0971429 8.68635 10.0971429 0.19485 0.892652381 0.19485 0.892652381 8.68635 10.0971429 8.68635"></polygon>
        <polygon id="path-3" points="0.388209524 9 9.56743705 9 9.56743705 0.51495 0.388209524 0.51495 0.388209524 9"></polygon>
    </defs>
    <g id="移动版" stroke="none" stroke-width="1" fill="none" fill-rule="evenodd">
        <g id="首页" transform="translate(-345.000000, -3705.000000)">
            <g id="送装同步" transform="translate(345.000000, 3705.000000)">
                <circle id="Oval-49-Copy" fill="#FFFFFF" cx="30" cy="30" r="30"></circle>
                <g id="Page-1" transform="translate(14.000000, 15.000000)">
                    <g id="Group-3" transform="translate(20.666667, 5.060700)">
                        <mask id="mask-2" fill="white">
                            <use xlink:href="#path-1"></use>
                        </mask>
                        <g id="Clip-2"></g>
                        <path d="M8.58803333,1.34835 C8.61017619,1.61535 8.63084286,1.88385 8.61312857,2.15685 C8.52012857,3.59235 7.8809381,4.90485 6.81660476,5.85285 C5.75079524,6.79935 4.39565238,7.26885 2.97260476,7.17285 C2.70541429,7.15485 2.44708095,7.09935 2.18874762,7.04235 L0.892652381,8.19435 C1.5244619,8.44185 2.18284286,8.62335 2.87665238,8.66985 C3.0287,8.68035 3.18222381,8.68635 3.33427143,8.68635 C4.97579524,8.68635 6.54203333,8.08935 7.7879381,6.98085 C9.1504619,5.76885 9.96679524,4.09035 10.0863667,2.25585 C10.1321286,1.55085 10.042081,0.86385 9.88412857,0.19485 L8.58803333,1.34835 Z" id="Fill-1" fill="#737373" mask="url(#mask-2)"></path>
                    </g>
                    <path d="M20.498381,2.8077 C21.5036667,1.9152 22.746619,1.4772 23.986619,1.4772 C24.373381,1.4772 24.7586667,1.5252 25.1365714,1.6092 L26.419381,0.4677 C24.1460476,-0.4188 21.483,-0.0603 19.5270476,1.6797 C17.5710952,3.4197 16.8684286,6.0552 17.4338095,8.4627 L18.7269524,7.3122 C18.592619,5.6652 19.1845714,3.9777 20.498381,2.8077" id="Fill-4" fill="#737373"></path>
                    <path d="M26.496881,6.86835 L24.3135952,4.33485 L26.6636905,2.24535 C26.1809762,1.95735 25.6716905,1.72935 25.1358333,1.60935 L22.2292143,4.19385 L26.358119,8.98485 L29.2544048,6.40935 C29.2086429,5.83935 29.069881,5.29185 28.852881,4.77135 L26.496881,6.86835 Z" id="Fill-6" fill="#737373"></path>
                    <path d="M28.853619,4.7718 C29.070619,5.2923 29.2079048,5.8398 29.2551429,6.4083 L30.5512381,5.2563 C30.4272381,4.7313 30.2515714,4.2258 30.008,3.7443 L28.853619,4.7718 Z" id="Fill-8" fill="#737373"></path>
                    <path d="M26.6638381,2.2446 L27.8256,1.2111 C27.3827429,0.9006 26.9103619,0.6591 26.4202667,0.4671 L25.135981,1.6086 C25.6718381,1.7286 26.1811238,1.9566 26.6638381,2.2446" id="Fill-10" fill="#737373"></path>
                    <path d="M1.48534286,21.8214 C1.57686667,20.3859 2.21605714,19.0734 3.28186667,18.1254 C4.28567619,17.2329 5.53010476,16.7949 6.77010476,16.7949 C7.15686667,16.7949 7.54215238,16.8429 7.92005714,16.9269 L9.20434286,15.7854 C6.92953333,14.8974 4.26500952,15.2559 2.31053333,16.9974 C0.948009524,18.2094 0.13167619,19.8864 0.0121047619,21.7224 C-0.0336571429,22.4274 0.0563904762,23.1144 0.214342857,23.7819 L1.5104381,22.6299 C1.48829524,22.3614 1.46762857,22.0944 1.48534286,21.8214" id="Fill-12" fill="#737373"></path>
                    <g id="Group-16" transform="translate(3.952381, 20.060700)">
                        <mask id="mask-4" fill="white">
                            <use xlink:href="#path-3"></use>
                        </mask>
                        <g id="Clip-15"></g>
                        <path d="M6.3136381,6.16995 C4.99835238,7.33845 3.2741619,7.71045 1.68725714,7.35795 L0.388209524,8.51445 C1.17059048,8.81895 1.99282857,9.00045 2.8254,9.00045 C4.41082857,9.00045 6.0021619,8.43945 7.28497143,7.29795 C9.24092381,5.55645 9.94359048,2.92245 9.37820952,0.51495 L8.08506667,1.66545 C8.2194,3.31245 7.62744762,4.99995 6.3136381,6.16995" id="Fill-14" fill="#737373" mask="url(#mask-4)"></path>
                    </g>
                    <path d="M4.40598571,20.05335 L1.5097,22.62885 C1.5554619,23.19885 1.69422381,23.74635 1.91122381,24.26685 L4.26722381,22.16985 L6.45050952,24.70335 L4.0974619,26.79735 C4.58312857,27.08685 5.09979524,27.29985 5.64008095,27.41985 L8.53489048,24.84435 L4.40598571,20.05335 Z" id="Fill-17" fill="#737373"></path>
                    <path d="M4.09672381,26.79735 L2.93348571,27.83085 C3.37634286,28.14135 3.8502,28.38285 4.34029524,28.57485 L5.63934286,27.41985 C5.09905714,27.29985 4.58239048,27.08685 4.09672381,26.79735" id="Fill-19" fill="#737373"></path>
                    <path d="M1.91092857,24.2667 C1.69392857,23.7462 1.55664286,23.1987 1.50940476,22.6287 L0.213309524,23.7822 C0.337309524,24.3072 0.51297619,24.8127 0.756547619,25.2942 L1.91092857,24.2667 Z" id="Fill-21" fill="#737373"></path>
                    <path d="M12.7910429,19.062 C13.0346143,19.5495 13.2088048,20.055 13.3313286,20.5755 L21.5596143,13.2555 C21.0636143,13.062 20.5927095,12.8175 20.1557571,12.51 L12.7910429,19.062 Z" id="Fill-23" fill="#737373"></path>
                    <path d="M17.9735048,9.97605 C17.7299333,9.49005 17.5557429,8.98305 17.433219,8.46255 L9.20345714,15.78555 C9.69502857,15.97755 10.1659333,16.21905 10.6073143,16.52955 L17.9735048,9.97605 Z" id="Fill-25" fill="#737373"></path>
                    <path d="M19.1306905,8.9463 C18.9122143,8.4183 18.7734524,7.8708 18.7276905,7.3113 L17.4330714,8.4633 C17.5555952,8.9823 17.7297857,9.4893 17.9733571,9.9753 L19.1306905,8.9463 Z" id="Fill-27" fill="#737373"></path>
                    <path d="M21.3111714,11.48175 L20.1553143,12.50925 C20.5937429,12.81675 21.0646476,13.06125 21.5591714,13.25625 L22.8552667,12.10275 C22.3061238,11.98125 21.7909333,11.76975 21.3111714,11.48175" id="Fill-29" fill="#737373"></path>
                    <path d="M9.44614286,17.56245 L10.6079048,16.52895 C10.1650476,16.21845 9.69414286,15.97695 9.20404762,15.78495 L7.9197619,16.92795 C8.45561905,17.04795 8.96342857,17.27445 9.44614286,17.56245" id="Fill-31" fill="#737373"></path>
                    <path d="M11.6335619,20.0916 C11.8520381,20.6196 11.9908,21.1671 12.0365619,21.7266 L13.331181,20.5761 C13.2086571,20.0556 13.0344667,19.5486 12.7908952,19.0626 L11.6335619,20.0916 Z" id="Fill-33" fill="#737373"></path>
                </g>
            </g>
        </g>
    </g>
</svg>