<?xml version="1.0" encoding="UTF-8" standalone="no"?>
<svg width="35px" height="39px" viewBox="0 0 35 39" version="1.1" xmlns="http://www.w3.org/2000/svg" xmlns:xlink="http://www.w3.org/1999/xlink">
    <!-- Generator: Sketch 3.7 (28169) - http://www.bohemiancoding.com/sketch -->
    <title>Page 1</title>
    <desc>Created with Sketch.</desc>
    <defs>
        <polygon id="path-1" points="17.2654219 21.0938776 34.5303906 21.0938776 34.5303906 0.00222040816 0.000453125 0.00222040816 0.000453125 21.0938776"></polygon>
    </defs>
    <g id="移动版" stroke="none" stroke-width="1" fill="none" fill-rule="evenodd">
        <g id="首页" transform="translate(-35.000000, -64.000000)">
            <g id="Page-1" transform="translate(35.000000, 64.000000)">
                <path d="M17.2665547,2.22040816 C13.0502266,2.22040816 9.61780469,5.58210612 9.61780469,9.71428571 C9.61780469,13.8486857 13.0502266,17.2103837 17.2665547,17.2103837 C21.4828828,17.2103837 24.9130391,13.8486857 24.9130391,9.71428571 C24.9130391,5.58210612 21.4828828,2.22040816 17.2665547,2.22040816 M17.2665547,19.4307918 C11.7996016,19.4307918 7.35217969,15.0721306 7.35217969,9.71428571 C7.35217969,4.35866122 11.7996016,0 17.2665547,0 C22.7312422,0 27.1786641,4.35866122 27.1786641,9.71428571 C27.1786641,15.0721306 22.7312422,19.4307918 17.2665547,19.4307918" id="Fill-1" fill="#FEFEFE"></path>
                <g id="Group-5" transform="translate(0.000000, 17.208163)">
                    <mask id="mask-2" fill="white">
                        <use xlink:href="#path-1"></use>
                    </mask>
                    <g id="Clip-4"></g>
                    <path d="M34.5308438,21.0938776 L32.2652188,21.0938776 L32.2652188,19.9836735 C32.2652188,10.1894531 25.5363125,2.22262857 17.2667813,2.22262857 C8.99498438,2.22262857 2.26607813,10.1894531 2.26607813,19.9836735 L2.26607813,21.0938776 L0.000453125,21.0938776 L0.000453125,19.9836735 C0.000453125,8.96600816 7.746625,0.00222040816 17.2667813,0.00222040816 C26.7869375,0.00222040816 34.5308438,8.96600816 34.5308438,19.9836735 L34.5308438,21.0938776 Z" id="Fill-3" fill="#FEFEFE" mask="url(#mask-2)"></path>
                </g>
            </g>
        </g>
    </g>
</svg>