<?xml version="1.0" encoding="UTF-8" standalone="no"?>
<svg width="68px" height="66px" viewBox="0 0 68 66" version="1.1" xmlns="http://www.w3.org/2000/svg" xmlns:xlink="http://www.w3.org/1999/xlink">
    <!-- Generator: Sketch 3.7 (28169) - http://www.bohemiancoding.com/sketch -->
    <title>Group 5</title>
    <desc>Created with Sketch.</desc>
    <defs>
        <path d="M33.7258065,0 C57.9252676,0 67.4516129,7.60493333 67.4516129,31.9390667 C67.4516129,56.2733333 57.9252676,66 33.7258065,66 C9.52634531,66 0,56.2733333 0,31.9390667 C0,7.60493333 9.52634531,0 33.7258065,0 L33.7258065,0 Z" id="path-1"></path>
        <mask id="mask-2" maskContentUnits="userSpaceOnUse" maskUnits="objectBoundingBox" x="0" y="0" width="67.4516129" height="66" fill="white">
            <use xlink:href="#path-1"></use>
        </mask>
        <polygon id="path-3" points="31.6044143 28.2541 31.6044143 0.4396 0.000173174873 0.4396 0.000173174873 28.2541 31.6044143 28.2541"></polygon>
        <polygon id="path-5" points="0.861718166 3.5 4.08103905 3.5 4.08103905 0.245525 0.861718166 0.245525 0.861718166 3.5"></polygon>
    </defs>
    <g id="移动版" stroke="none" stroke-width="1" fill="none" fill-rule="evenodd">
        <g id="首页" transform="translate(-587.000000, -516.000000)">
            <g id="Group-6" transform="translate(82.000000, 516.000000)">
                <g id="icon－在线客服" transform="translate(491.000000, 0.000000)">
                    <g id="Group-5" transform="translate(14.000000, 0.000000)">
                        <use id="Shape-Copy" stroke="#BFBFBF" mask="url(#mask-2)" stroke-width="2.2" fill="#FFFFFF" xlink:href="#path-1"></use>
                        <g id="Page-1" transform="translate(17.548387, 14.300000)">
                            <g id="Group-3" transform="translate(0.000000, 0.210400)">
                                <mask id="mask-4" fill="white">
                                    <use xlink:href="#path-3"></use>
                                </mask>
                                <g id="Clip-2"></g>
                                <path d="M26.3989508,28.2541 L25.2386791,26.9556 C28.182652,24.2641 29.8728387,20.41935 29.8728387,16.40835 C29.8728387,8.56835 23.5606146,2.1896 15.8023803,2.1896 C8.04241426,2.1896 1.7319219,8.56835 1.7319219,16.40835 C1.7319219,20.2006 3.38574194,24.22035 6.04743973,26.8996 L4.82655688,28.14035 C1.84968081,25.1461 0.000173174873,20.65035 0.000173174873,16.40835 C0.000173174873,7.60235 7.08995246,0.4396 15.8023803,0.4396 C24.5148081,0.4396 31.6045874,7.60235 31.6045874,16.40835 C31.6045874,20.91285 29.7065908,25.2301 26.3989508,28.2541" id="Fill-1" fill="#737373" mask="url(#mask-4)"></path>
                            </g>
                            <path d="M7.82663837,21.326075 C7.74005093,21.326075 7.65,21.336575 7.56341256,21.359325 L7.56168081,21.359325 C6.05679117,21.733825 5.13203735,23.277325 5.50263158,24.799825 L6.36677419,28.338325 C6.73910017,29.859075 8.26650255,30.786575 9.77485569,30.417325 C10.3671138,30.270325 10.730781,29.661325 10.5853141,29.061075 L8.90378608,22.176575 C8.77910017,21.667325 8.325382,21.326075 7.82663837,21.326075 M9.09947368,32.251325 C7.05947368,32.251325 5.19611205,30.847825 4.68697793,28.756575 L3.82110357,25.219825 C3.22365025,22.759325 4.71468591,20.265575 7.14606112,19.660075 C8.67865874,19.275075 10.2095246,20.223575 10.5853141,21.758325 L12.2651104,28.642825 C12.6391681,30.179325 11.7074873,31.738575 10.1887436,32.116575 C9.8250764,32.207575 9.45967742,32.251325 9.09947368,32.251325" id="Fill-4" fill="#737373"></path>
                            <path d="M23.4935959,21.326075 C22.9948523,21.326075 22.5411341,21.667325 22.4164482,22.178325 L20.736652,29.061075 C20.6656503,29.351575 20.7124075,29.652575 20.8630696,29.909825 C21.0154635,30.165325 21.2596401,30.345575 21.5471104,30.417325 C23.0398778,30.784825 24.5794024,29.860825 24.9534601,28.338325 L25.8176027,24.799825 C26.1881969,23.277325 25.2634431,21.733825 23.7585535,21.359325 L23.7568217,21.359325 C23.6702343,21.336575 23.5801834,21.326075 23.4935959,21.326075 M22.2207606,32.251325 C21.8605569,32.251325 21.4968896,32.207575 21.1332224,32.116575 C20.3954975,31.932825 19.7737997,31.470825 19.3806927,30.812825 C18.9875857,30.156575 18.8732903,29.384825 19.0551239,28.641075 L20.7349202,21.758325 C21.1107097,20.221825 22.651966,19.280325 24.1741732,19.660075 C26.6055484,20.265575 28.096584,22.759325 27.4991307,25.219825 L26.6332564,28.756575 C26.1241222,30.847825 24.2607606,32.251325 22.2207606,32.251325" id="Fill-6" fill="#737373"></path>
                            <path d="M8.08882513,8.00455 C6.24104924,8.00455 5.12233956,6.7813 4.76213582,6.04455 L6.31031919,5.26055 C6.37785739,5.38655 7.00475042,6.4943 8.60488625,6.20555 C8.76074363,6.1758 9.17289983,5.8678 9.50193209,5.6228 C10.6483497,4.76705 12.5636638,3.33905 15.8522547,3.33905 C19.4161935,3.33905 21.0319151,4.69705 21.9964992,5.5073 C22.245871,5.71555 22.479657,5.9133 22.6285874,5.98155 C23.0892326,6.18455 23.7386384,6.32805 24.1802343,6.12855 C24.4486553,6.0078 24.644343,5.75755 24.7742241,5.36205 L26.4176537,5.91855 C26.0557182,7.0088 25.3820679,7.50405 24.8798608,7.7298 C23.7091986,8.2548 22.4277046,7.8033 21.9306927,7.5828 C21.5583667,7.41655 21.2483837,7.1558 20.8899117,6.85305 C20.0032564,6.1093 18.7910323,5.08905 15.8522547,5.08905 C13.1334092,5.08905 11.6302513,6.2108 10.5323226,7.0298 C9.93660102,7.4743 9.46729711,7.8243 8.91660102,7.9258 C8.62566723,7.98005 8.34858744,8.00455 8.08882513,8.00455" id="Fill-8" fill="#737373"></path>
                            <path d="M17.7571783,35.738725 L17.3069236,34.048225 C19.6291986,33.416475 20.5141222,30.999725 20.5245127,30.973475 L22.15582,31.556225 C22.1107946,31.690975 20.9747674,34.863725 17.7571783,35.738725" id="Fill-10" fill="#737373"></path>
                            <g id="Group-14" transform="translate(13.853990, 33.460400)">
                                <mask id="mask-6" fill="white">
                                    <use xlink:href="#path-5"></use>
                                </mask>
                                <g id="Clip-13"></g>
                                <path d="M4.08103905,1.873025 C4.08103905,2.770775 3.36063158,3.500525 2.47051273,3.500525 C1.58212564,3.500525 0.861718166,2.770775 0.861718166,1.873025 C0.861718166,0.975275 1.58212564,0.245525 2.47051273,0.245525 C3.36063158,0.245525 4.08103905,0.975275 4.08103905,1.873025" id="Fill-12" fill="#737373" mask="url(#mask-6)"></path>
                            </g>
                        </g>
                    </g>
                </g>
            </g>
        </g>
    </g>
</svg>