<?xml version="1.0" encoding="UTF-8" standalone="no"?>
<svg width="68px" height="66px" viewBox="0 0 68 66" version="1.1" xmlns="http://www.w3.org/2000/svg" xmlns:xlink="http://www.w3.org/1999/xlink">
    <!-- Generator: Sketch 3.7 (28169) - http://www.bohemiancoding.com/sketch -->
    <title>Group 7</title>
    <desc>Created with Sketch.</desc>
    <defs>
        <path d="M33.7258065,0 C57.9252676,0 67.4516129,7.60493333 67.4516129,31.9390667 C67.4516129,56.2733333 57.9252676,66 33.7258065,66 C9.52634531,66 0,56.2733333 0,31.9390667 C0,7.60493333 9.52634531,0 33.7258065,0 L33.7258065,0 Z" id="path-1"></path>
        <mask id="mask-2" maskContentUnits="userSpaceOnUse" maskUnits="objectBoundingBox" x="0" y="0" width="67.4516129" height="66" fill="white">
            <use xlink:href="#path-1"></use>
        </mask>
    </defs>
    <g id="移动版" stroke="none" stroke-width="1" fill="none" fill-rule="evenodd">
        <g id="首页" transform="translate(-341.000000, -516.000000)">
            <g id="Group-6" transform="translate(82.000000, 516.000000)">
                <g id="icon－我的订单" transform="translate(245.000000, 0.000000)">
                    <g id="Group-7" transform="translate(14.000000, 0.000000)">
                        <use id="Shape" stroke="#BFBFBF" mask="url(#mask-2)" stroke-width="2.2" fill="#FFFFFF" xlink:href="#path-1"></use>
                        <g id="Page-1" transform="translate(19.741935, 16.500000)" fill="#737373">
                            <polygon id="Fill-1" points="0 -0.000341 0 33.034034 28.2611613 33.034034 28.2611613 9.117999 26.5837419 9.117999 26.5837419 31.329034 1.67741935 31.329034 1.67741935 1.704659 19.156129 1.704659 19.156129 -0.000341"></polygon>
                            <path d="M24.1685935,7.411976 L20.8338839,7.411976 L20.8338839,4.073586 L24.1685935,7.411976 Z M19.1564645,9.116976 L26.5824,9.116976 L26.5824,7.437551 L20.8590452,1.705341 L19.1564645,1.705341 L19.1564645,9.116976 Z" id="Fill-2"></path>
                            <polygon id="Fill-3" points="26.5839097 9.117658 28.261329 9.117658 26.5839097 7.438233"></polygon>
                            <polygon id="Fill-4" points="19.1562968 -0.000341 19.1562968 1.704659 20.8588774 1.704659"></polygon>
                            <g id="Group-11" transform="translate(5.032258, 12.574375)">
                                <path d="M17.1690581,2.3268135 L1.02725161,2.3268135 C0.564283871,2.3268135 0.188541935,1.9448935 0.188541935,1.4743135 C0.188541935,1.0037335 0.564283871,0.6218135 1.02725161,0.6218135 L17.1690581,0.6218135 C17.6320258,0.6218135 18.0077677,1.0037335 18.0077677,1.4743135 C18.0077677,1.9448935 17.6320258,2.3268135 17.1690581,2.3268135" id="Fill-5"></path>
                                <path d="M17.1690581,8.2053125 L1.02725161,8.2053125 C0.564283871,8.2053125 0.188541935,7.8233925 0.188541935,7.3528125 C0.188541935,6.8822325 0.564283871,6.5003125 1.02725161,6.5003125 L17.1690581,6.5003125 C17.6320258,6.5003125 18.0077677,6.8822325 18.0077677,7.3528125 C18.0077677,7.8233925 17.6320258,8.2053125 17.1690581,8.2053125" id="Fill-7"></path>
                                <path d="M17.1690581,14.0844935 L1.02725161,14.0844935 C0.564283871,14.0844935 0.188541935,13.7025735 0.188541935,13.2319935 C0.188541935,12.7614135 0.564283871,12.3794935 1.02725161,12.3794935 L17.1690581,12.3794935 C17.6320258,12.3794935 18.0077677,12.7614135 18.0077677,13.2319935 C18.0077677,13.7025735 17.6320258,14.0844935 17.1690581,14.0844935" id="Fill-9"></path>
                            </g>
                        </g>
                    </g>
                </g>
            </g>
        </g>
    </g>
</svg>