<?xml version="1.0" encoding="UTF-8" standalone="no"?>
<svg width="60px" height="60px" viewBox="0 0 60 60" version="1.1" xmlns="http://www.w3.org/2000/svg" xmlns:xlink="http://www.w3.org/1999/xlink">
    <!-- Generator: Sketch 3.7 (28169) - http://www.bohemiancoding.com/sketch -->
    <title>icon－免邮</title>
    <desc>Created with Sketch.</desc>
    <defs>
        <polygon id="path-1" points="0 24.3189655 31.2976842 24.3189655 31.2976842 0.149051724 0 0.149051724"></polygon>
    </defs>
    <g id="移动版" stroke="none" stroke-width="1" fill="none" fill-rule="evenodd">
        <g id="首页" transform="translate(-135.000000, -3705.000000)">
            <g id="icon－免邮" transform="translate(135.000000, 3705.000000)">
                <circle id="Oval-49" fill="#FFFFFF" cx="30" cy="30" r="30"></circle>
                <g id="Page-1" transform="translate(14.000000, 17.000000)">
                    <path d="M9.02905263,20.1666422 L31.2976842,20.1666422 L31.2976842,0.784314655 L9.02905263,0.784314655 L9.02905263,20.1666422 Z M10.7132632,18.4856078 L29.6134737,18.4856078 L29.6134737,2.46534914 L10.7132632,2.46534914 L10.7132632,18.4856078 Z" id="Fill-1" fill="#737373"></path>
                    <g id="Group-8" transform="translate(0.000000, 0.635263)">
                        <path d="M1.68421053,17.8516897 L9.02905263,17.8516897 L9.02905263,7.17712069 C4.90947368,7.60074138 1.68421053,11.0855259 1.68421053,15.3066034 L1.68421053,17.8516897 L1.68421053,17.8516897 Z M10.7132632,19.5327241 L0,19.5327241 L0,15.3066034 C0,9.8735 4.42778947,5.45406034 9.87115789,5.45406034 L10.7132632,5.45406034 L10.7132632,19.5327241 L10.7132632,19.5327241 Z" id="Fill-2" fill="#737373"></path>
                        <mask id="mask-2" fill="white">
                            <use xlink:href="#path-1"></use>
                        </mask>
                        <g id="Clip-5"></g>
                        <polygon id="Fill-4" fill="#737373" mask="url(#mask-2)" points="0.842105263 15.0144397 9.87115789 15.0144397 9.87115789 13.3334052 0.842105263 13.3334052"></polygon>
                        <path d="M7.11023158,19.5327241 C6.25296842,19.5327241 5.55570526,20.2286724 5.55570526,21.084319 C5.55570526,21.9416466 6.25296842,22.6375948 7.11023158,22.6375948 C7.96917895,22.6375948 8.66644211,21.9416466 8.66644211,21.084319 C8.66644211,20.2286724 7.96917895,19.5327241 7.11023158,19.5327241 M7.11023158,24.3186293 C5.32328421,24.3186293 3.87149474,22.8678966 3.87149474,21.084319 C3.87149474,19.3024224 5.32328421,17.8516897 7.11023158,17.8516897 C8.89717895,17.8516897 10.3506526,19.3024224 10.3506526,21.084319 C10.3506526,22.8678966 8.89717895,24.3186293 7.11023158,24.3186293" id="Fill-6" fill="#737373" mask="url(#mask-2)"></path>
                        <path d="M23.8487579,19.5327241 C22.9898105,19.5327241 22.2925474,20.2286724 22.2925474,21.084319 C22.2925474,21.9416466 22.9898105,22.6375948 23.8487579,22.6375948 C24.7077053,22.6375948 25.4049684,21.9416466 25.4049684,21.084319 C25.4049684,20.2286724 24.7077053,19.5327241 23.8487579,19.5327241 M23.8487579,24.3186293 C22.0618105,24.3186293 20.6083368,22.8678966 20.6083368,21.084319 C20.6083368,19.3024224 22.0618105,17.8516897 23.8487579,17.8516897 C25.6357053,17.8516897 27.0891789,19.3024224 27.0891789,21.084319 C27.0891789,22.8678966 25.6357053,24.3186293 23.8487579,24.3186293" id="Fill-7" fill="#737373" mask="url(#mask-2)"></path>
                    </g>
                </g>
            </g>
        </g>
    </g>
</svg>