<?xml version="1.0" encoding="UTF-8" standalone="no"?>
<svg width="44px" height="45px" viewBox="0 0 44 45" version="1.1" xmlns="http://www.w3.org/2000/svg" xmlns:xlink="http://www.w3.org/1999/xlink">
    <!-- Generator: Sketch 3.7 (28169) - http://www.bohemiancoding.com/sketch -->
    <title>logo</title>
    <desc>Created with Sketch.</desc>
    <defs></defs>
    <g id="移动版" stroke="none" stroke-width="1" fill="none" fill-rule="evenodd">
        <g id="首页" transform="translate(-353.000000, -62.000000)" fill="#FFFFFF">
            <g id="logo" transform="translate(353.000000, 62.000000)">
                <path d="M37.7005484,16.9879261 C37.697676,19.2613303 37.0872862,19.4731426 34.2421516,19.4695647 L16.5724441,19.4459505 L16.5889605,7.20735055 L34.2586681,7.23096476 C36.9709531,7.23454267 37.7127562,7.88500676 37.7098838,10.2578769 L37.7005484,16.9879261 Z M37.676851,34.719334 C37.6739785,36.9927382 37.0628706,37.2059816 34.2184542,37.2016881 L16.5487466,37.1780739 L16.5652631,24.9387584 L34.2349706,24.9623726 C36.9472556,24.9659505 37.6890588,25.6171302 37.6854682,27.9900003 L37.676851,34.719334 Z M10.8189817,13.0958753 C10.8189817,13.2232489 10.7112658,13.3313018 10.583443,13.3305862 L5.64359427,13.324146 C5.51505336,13.324146 5.40661941,13.2160931 5.40661941,13.0880039 L5.41451857,7.43204332 C5.41451857,7.29822947 5.53731464,7.23597383 5.65149343,7.23668942 L10.5913422,7.24312965 C10.7048029,7.24312965 10.8268808,7.30538529 10.8268808,7.43991472 L10.8189817,13.0958753 Z M10.8031833,24.905126 C10.8031833,25.0332152 10.6954675,25.1412681 10.5676447,25.1412681 L5.62779595,25.1348279 C5.49853693,25.1341123 5.39082108,25.0260594 5.39082108,24.8979702 L5.39872025,19.2434408 C5.39872025,19.1089113 5.52151631,19.0473713 5.63569511,19.0473713 L10.5755439,19.0538115 C10.6890045,19.0538115 10.8110825,19.1160672 10.8110825,19.2505966 L10.8031833,24.905126 Z M10.787385,37.0750301 C10.7866669,37.2024037 10.6789511,37.309741 10.5511283,37.3090254 L5.61127952,37.3025852 C5.48273861,37.3025852 5.37430465,37.1945323 5.37430465,37.0678743 L5.38220382,31.4111981 C5.38220382,31.2766687 5.50499988,31.2151286 5.61917868,31.2151286 L10.5590274,31.2215689 C10.6724881,31.2222844 10.7945661,31.2838245 10.7945661,31.4183539 L10.787385,37.0750301 Z M43.3484494,24.3376695 C43.0511536,23.6099225 42.3064781,22.9451468 41.2910767,22.4535419 C42.3847516,21.900397 43.0518717,21.2520796 43.3534761,20.5472313 C43.4626282,20.1486521 43.536593,19.7493573 43.5128955,19.2856601 C43.5215128,19.1461216 43.5207947,19.0008585 43.5100231,18.8491551 L43.5330025,1.79182553 L43.5330025,1.44190591 C43.5337206,1.05763834 43.3412683,0.603243732 43.0712606,0.371395145 C42.761757,0.101620709 42.2964246,0.0536767113 41.9502977,0.0536767113 L37.7953384,0.0479520549 C37.7953384,0.0479520549 36.6679125,1.43260334 34.469073,1.42974101 L16.0640253,1.40541122 L16.0654615,0.369248399 L16.0654615,0.0186131905 L11.3826946,0.012888534 L11.3819765,0.362808161 L11.3812584,0.9116596 C11.3805403,1.3503114 11.0976067,1.45049289 10.801029,1.44977731 L5.86046218,1.44333707 C5.56316644,1.44333707 5.28023281,1.34244 5.28023281,0.903788197 L5.28095092,0.354221176 L5.28166903,0.0043015493 L1.64302771,8.05695215e-06 C1.25525067,-0.000707525106 0.830850228,0.0458053087 0.559406294,0.314864163 C0.250620866,0.545281586 0.057450447,0.998960611 0.0567323413,1.38394376 L0.0560142357,1.73386338 L0.000720100886,43.0351131 L1.99523984e-06,43.3850327 C-0.000716110407,43.7693003 0.192454309,44.2236949 0.500521631,44.4555434 C0.770529354,44.7260335 1.19492979,44.7732619 1.58270684,44.7739775 L5.22134815,44.7789865 L5.22206626,44.4290669 L5.22278436,43.8794999 C5.22350247,43.4401325 5.50643609,43.3406666 5.80373183,43.3406666 L10.7442987,43.3478224 C11.0415944,43.3478224 11.324528,43.4487195 11.3238099,43.8873713 L11.3230918,44.4376539 L11.3223737,44.7868579 L16.0051406,44.7932982 L16.0058588,44.4440941 L16.007295,43.4057846 L34.4123427,43.4308299 C36.6119003,43.4336923 37.7357356,44.8219215 37.7357356,44.8219215 L41.8899768,44.8276461 C42.2361037,44.8283617 42.7014362,44.7818489 43.0116578,44.5120744 C43.2823836,44.281657 43.4762722,43.827978 43.4769903,43.4429948 L43.4769903,43.0930752 L43.4999696,26.0364613 C43.5114593,25.8840423 43.5128955,25.7394947 43.5042783,25.5992406 C43.529412,25.136259 43.4568833,24.7355331 43.3484494,24.3376695 L43.3484494,24.3376695 Z" id="Fill-1"></path>
            </g>
        </g>
    </g>
</svg>