<?xml version="1.0" encoding="UTF-8" standalone="no"?>
<svg width="32px" height="32px" viewBox="0 0 32 32" version="1.1" xmlns="http://www.w3.org/2000/svg" xmlns:xlink="http://www.w3.org/1999/xlink">
    <!-- Generator: Sketch 3.7 (28169) - http://www.bohemiancoding.com/sketch -->
    <title>微博</title>
    <desc>Created with Sketch.</desc>
    <defs></defs>
    <g id="官网优化" stroke="none" stroke-width="1" fill="none" fill-rule="evenodd">
        <g id="pc" transform="translate(-1192.000000, -186.000000)">
            <g id="Group-2" transform="translate(573.000000, 15.000000)">
                <g id="Group-6" transform="translate(619.000000, 171.000000)">
                    <g id="微博">
                        <circle id="Oval-66-Copy" fill="#F56965" cx="16" cy="16" r="16"></circle>
                        <g transform="translate(5.913043, 8.000000)" id="Group" fill="#FFFFFF">
                            <g transform="translate(0.048898, 0.057979)">
                                <path d="M14.5739233,7.77001904 C14.3490197,7.72486066 14.2029981,7.65734764 14.1358584,7.56748 C14.0687188,7.47761236 14.0574519,7.39496489 14.1020577,7.31953759 L14.1696592,7.20709076 C14.1845187,7.19220128 14.1996228,7.16962209 14.2149713,7.13935318 C14.2303198,7.10908426 14.260297,7.04517793 14.3049028,6.94763418 C14.3495087,6.85009043 14.3833162,6.75254669 14.4063254,6.65500294 C14.4293346,6.55745919 14.4480313,6.43733624 14.4624155,6.29463411 C14.4767997,6.15193197 14.4729693,6.01666777 14.4509245,5.88884149 C14.4288796,5.76101522 14.3837984,5.62214434 14.3156808,5.47222883 C14.2475632,5.32231333 14.1538081,5.18704913 14.0344155,5.06643622 C13.824385,4.85598289 13.5508008,4.72071869 13.2136627,4.66064361 C12.8765247,4.60056853 12.5393934,4.59673047 12.202269,4.64912944 C11.8651445,4.70152842 11.5467303,4.76904143 11.2470264,4.85166849 C10.9473225,4.93429554 10.700116,5.01310496 10.5054069,5.08809673 L10.2133636,5.22361272 C10.063274,5.26877111 9.93954849,5.29880865 9.84218716,5.31372535 C9.74482583,5.32864204 9.669781,5.32480399 9.61705267,5.30221118 C9.56432434,5.27961838 9.52308025,5.25703918 9.49332039,5.2344736 C9.46356053,5.21190802 9.45229362,5.15929128 9.45951965,5.0766234 C9.46674569,4.99395551 9.47417547,4.92260444 9.48180898,4.86257019 C9.4894425,4.80253594 9.50813919,4.70859207 9.53789905,4.58073858 C9.56765891,4.45288509 9.59019273,4.35149648 9.60550052,4.27657275 C9.60550052,4.09638834 9.59423361,3.92749352 9.57169979,3.7698883 C9.54916596,3.61228308 9.50049209,3.43593672 9.42567817,3.24084922 C9.35086425,3.04576172 9.2422428,2.8881497 9.09981382,2.76801314 C8.95738485,2.64787659 8.77754891,2.55033284 8.56030601,2.47538189 C8.34306312,2.40043095 8.0620423,2.37785176 7.71724357,2.40764431 C7.37244483,2.43743687 6.98280936,2.52752908 6.54833715,2.67792094 C6.02371606,2.85810535 5.49166519,3.12455072 4.95218455,3.47725705 C4.41270391,3.82996338 3.94443096,4.19779056 3.54736571,4.58073858 C3.15030046,4.9636866 2.78680504,5.33536544 2.45687944,5.6957751 C2.12695385,6.05618476 1.87207308,6.34906099 1.69223714,6.57440379 L1.44479295,6.93477262 C0.95037995,7.58058655 0.583291882,8.22639368 0.343528745,8.872194 C0.103765607,9.51799432 -0.00868618438,10.0059649 0.00617337107,10.3361056 L0.00617337107,10.8089417 C0.0963358291,11.5297066 0.317402278,12.1755137 0.669372717,12.7463631 C1.02134316,13.3172124 1.44094902,13.7789835 1.92819031,14.1316762 C2.4154316,14.4843689 2.98872656,14.7846899 3.64807519,15.0326391 C4.30742382,15.2805883 4.94066636,15.4607863 5.5478028,15.5732332 C6.15493925,15.68568 6.79561835,15.7644894 7.46984012,15.8096614 C8.57903666,15.9000054 9.72922602,15.8137513 10.9204082,15.550899 C12.1115904,15.2880467 13.2205492,14.8337204 14.2472847,14.18792 C15.2740202,13.5421197 15.9971739,12.7687313 16.4167459,11.8677548 C16.6713821,11.3420774 16.8025442,10.846424 16.810232,10.3807944 C16.8179199,9.91516492 16.7392688,9.53604134 16.5742789,9.2434237 C16.4092889,8.95080607 16.1956522,8.69180543 15.9333689,8.4664218 C15.6710855,8.24103817 15.423879,8.07574323 15.1917494,7.97053698 C14.9596197,7.86533073 14.7536573,7.79781772 14.5738622,7.76799794 L14.5739233,7.77001904 Z M7.71805853,14.7751832 C6.09958944,14.8501478 4.72472062,14.5346923 3.59345207,13.8288169 C2.46218351,13.1229415 1.89656282,12.2294302 1.89658999,11.1482829 C1.89658999,10.0820386 2.45861804,9.16233459 3.58267413,8.38917074 C4.70673023,7.61600689 6.0854294,7.19171132 7.71877163,7.11628402 C9.35211386,7.04085672 10.730813,7.31114015 11.8548691,7.9271343 C12.9789252,8.54312845 13.5409533,9.38402308 13.5409533,10.4498182 C13.5409533,11.5309791 12.9676583,12.5032999 11.8210684,13.3667805 C10.6744785,14.2302611 9.30704621,14.6994769 7.71877163,14.7744279 L7.71805853,14.7751832 Z M7.06637059,8.53546595 C6.63191196,8.58062434 6.24227649,8.68201295 5.89746417,8.83963178 C5.55265185,8.99725061 5.28291153,9.17744863 5.08824321,9.38022585 C4.89357488,9.58300307 4.72861208,9.80066976 4.59335481,10.0332259 C4.45809754,10.2657821 4.36434244,10.4947452 4.31208951,10.7201152 C4.25983657,10.9454852 4.22602905,11.1518623 4.21066693,11.3392465 C4.19530481,11.5266307 4.18787503,11.6729463 4.18837759,11.7781934 L4.21066693,11.9583982 L4.21066693,12.0485108 C4.21066693,12.0936692 4.22577097,12.1837614 4.25597906,12.3187874 C4.28618715,12.4538135 4.32743125,12.5777881 4.37971135,12.6907113 C4.43199145,12.8036345 4.51807228,12.9276091 4.63795385,13.0626351 C4.75783542,13.1976611 4.9002644,13.3103393 5.06524078,13.4006697 C6.05455575,13.8811887 6.97624209,14.0275043 7.83029979,13.8396166 C8.68435749,13.6517288 9.37370368,13.2199953 9.89833835,12.5444161 C10.1083688,12.2892671 10.2469606,11.9738117 10.3141139,11.5980498 C10.3812671,11.2222879 10.3661631,10.8431643 10.2688017,10.4606791 C10.1714404,10.0781938 10.002885,9.72910093 9.76313541,9.41340053 C9.52338586,9.09770012 9.16755791,8.85359577 8.69565157,8.68108746 C8.22374523,8.50857916 7.68041387,8.45980728 7.06565749,8.53477184 L7.06637059,8.53546595 Z M6.25710888,12.793073 C6.16694642,12.8079625 6.08086558,12.8118005 5.99886637,12.8045872 C5.91686716,12.7973738 5.84182233,12.7822393 5.77373188,12.7591838 C5.70564143,12.7361282 5.63826408,12.7099492 5.57159982,12.6806466 C5.50493557,12.651344 5.44883191,12.6100168 5.40328887,12.5566652 C5.35774583,12.5033135 5.31650173,12.4506968 5.27955659,12.398815 C5.24261144,12.3469332 5.21263426,12.2868649 5.18962504,12.2186101 C5.16661581,12.1503554 5.1553489,12.0790043 5.1558243,12.0045569 C5.1558243,11.839262 5.20090553,11.6778119 5.29106799,11.5202067 C5.38123045,11.3626015 5.50495594,11.2273373 5.66224447,11.1144141 C5.819533,11.0014909 5.99552501,10.9375846 6.1902205,10.9226951 C6.32497521,10.9078056 6.45613727,10.9116437 6.58370669,10.9342092 C6.71127611,10.9567748 6.81989756,10.9942571 6.90957104,11.0466561 C6.99924452,11.0990551 7.07789557,11.1591233 7.14552421,11.2268609 C7.21315284,11.2945985 7.26182672,11.3734079 7.29154583,11.4632892 C7.32126494,11.5531704 7.33636898,11.6507142 7.33685796,11.7559204 C7.33685796,11.9212153 7.28818409,12.0788274 7.19083634,12.2287565 C7.0934886,12.3786856 6.96232654,12.5062601 6.79735015,12.6114799 C6.63237377,12.7166998 6.45253784,12.7767681 6.25784235,12.7916848 L6.25710888,12.793073 Z M8.16763479,11.1713316 C8.06261278,11.2462962 7.95399133,11.2801718 7.84177044,11.2729584 C7.72954956,11.265745 7.6508985,11.2169732 7.60581727,11.1266428 L7.56050514,11.0365301 C7.54564558,11.0062612 7.53821581,10.9762237 7.53821581,10.9464175 L7.53821581,10.8563049 C7.53821581,10.8111465 7.54564558,10.7736642 7.56050514,10.7438581 L7.60581727,10.6537454 C7.62067683,10.6234765 7.64321065,10.6008973 7.67341874,10.5860079 L7.74102021,10.4958952 C7.86091537,10.4055513 7.97696659,10.368069 8.08917389,10.3834484 C8.20138119,10.3988278 8.28003225,10.4588961 8.32512706,10.5636532 C8.37019471,10.6237283 8.3888914,10.6912413 8.38121713,10.7661923 C8.37354286,10.8411432 8.35100904,10.9124943 8.31361566,10.9802455 C8.27622228,11.0479967 8.22754841,11.111903 8.16759404,11.1719645 L8.16763479,11.1713316 Z M16.1477865,6.46326353 C16.237949,6.46326353 16.3204304,6.44068433 16.3952307,6.39552595 C16.4700311,6.35036756 16.5299787,6.29415095 16.5750735,6.22687611 C16.6201683,6.15960128 16.6501455,6.08825021 16.665005,6.01282291 C16.6798646,5.99793343 16.6872944,5.97535424 16.6872944,5.94508533 C16.8671167,4.23301355 16.2676749,3.25685472 14.8889689,3.01660884 C14.4842294,2.94164428 14.1094671,2.93419955 13.7646819,2.99427463 C13.6596599,2.99427463 13.5697488,3.0204537 13.4949484,3.07281184 C13.4201481,3.12516998 13.3563702,3.192683 13.3036147,3.27535088 C13.2508592,3.35801877 13.2247327,3.44427292 13.2252353,3.53411334 C13.2252353,3.68450519 13.2777463,3.81207968 13.3827683,3.91683679 C13.4877903,4.02159391 13.6151084,4.07421064 13.7647227,4.074687 C14.93386,3.80415859 15.5632654,4.17967548 15.6529389,5.20123768 C15.683147,5.45638665 15.6680429,5.69664615 15.6076268,5.92201617 C15.6076268,6.07240802 15.6601378,6.19998251 15.7651598,6.30473962 C15.8701818,6.40949674 15.9974999,6.46211347 16.1471142,6.46258983 L16.1477865,6.46326353 Z M15.7658321,0.111834378 C15.1064563,-0.0385574776 14.2221702,-0.0085199368 13.1129736,0.201947 C13.0981141,0.201947 13.08301,0.209391738 13.0676615,0.224281212 L13.0453722,0.269684581 L13.0230828,0.292018792 C12.85812,0.337177179 12.7231276,0.431121051 12.6181056,0.573850408 C12.5130836,0.716579765 12.4605726,0.870578303 12.4605726,1.03584602 C12.4605726,1.26120243 12.5356174,1.4488452 12.6857071,1.59877431 C12.8357967,1.74870342 13.0156327,1.82389935 13.2252149,1.82436209 L13.2928164,1.82436209 C13.3076759,1.82436209 13.3414834,1.81691735 13.3942389,1.80202788 C13.4469944,1.78713841 13.5030981,1.77584881 13.5625499,1.76815909 C13.6220017,1.76046937 13.6857796,1.74533491 13.7538836,1.72275572 C13.8219877,1.70017653 13.8819352,1.67759733 13.9337264,1.65501814 C13.9855175,1.63243895 14.0867024,1.62114935 14.237281,1.62114935 C14.3878596,1.62114935 14.5715259,1.63243895 14.7882798,1.65501814 C15.0050338,1.67759733 15.2448105,1.73381394 15.50761,1.82366797 C15.7704095,1.913522 16.0327201,2.02620021 16.2945416,2.16170259 C16.5563632,2.29720497 16.8186737,2.48484773 17.0814733,2.72463088 C17.3442728,2.96441402 17.5727758,3.24214899 17.7669823,3.55783578 C18.1568623,4.44390921 18.2319071,5.2999451 17.9921168,6.12594344 C17.9921168,6.14083292 17.9882865,6.15596737 17.9806258,6.17134681 C17.9729651,6.18672625 17.9616982,6.22420853 17.946825,6.28379365 C17.9319519,6.34337876 17.9168479,6.39959537 17.9015129,6.45244348 C17.886178,6.50529159 17.8710739,6.5728046 17.8562008,6.65498252 C17.8413276,6.73716044 17.8338979,6.80851151 17.8339114,6.86903573 C17.8339114,7.00406175 17.8713184,7.11673996 17.9461323,7.20707034 C18.0209462,7.29740073 18.1147013,7.36130706 18.2273976,7.39878934 C18.3400939,7.43627161 18.471256,7.45500595 18.6208838,7.45499234 C19.0404965,7.45499234 19.287703,7.19959839 19.3625033,6.68881048 C19.5423257,6.10305802 19.6435105,5.54373642 19.666058,5.01084568 C19.6886054,4.47795493 19.6511984,4.00873915 19.5538371,3.60319832 C19.4564757,3.1976575 19.3104541,2.81853392 19.1157722,2.46582759 C18.9210903,2.11312126 18.6961867,1.81280029 18.4410615,1.56486469 C18.1859362,1.31692908 17.901085,1.09157267 17.586508,0.888795452 C17.2719309,0.686018234 16.9683763,0.524568154 16.6758441,0.404445211 C16.3833119,0.284322268 16.0797572,0.186778519 15.7651802,0.111813963 L15.7658321,0.111834378 Z" id="Shape"></path>
                            </g>
                        </g>
                    </g>
                </g>
            </g>
        </g>
    </g>
</svg>