<?xml version="1.0" encoding="UTF-8" standalone="no"?>
<svg width="32px" height="32px" viewBox="0 0 32 32" version="1.1" xmlns="http://www.w3.org/2000/svg" xmlns:xlink="http://www.w3.org/1999/xlink">
    <!-- Generator: Sketch 3.7 (28169) - http://www.bohemiancoding.com/sketch -->
    <title>公众号</title>
    <desc>Created with Sketch.</desc>
    <defs></defs>
    <g id="官网优化" stroke="none" stroke-width="1" fill="none" fill-rule="evenodd">
        <g id="pc" transform="translate(-1191.000000, -145.000000)">
            <g id="Group-2" transform="translate(1191.000000, 145.000000)">
                <g id="Group-4">
                    <g id="公众号">
                        <g id="Group-2-Copy" fill="#FFFFFF">
                            <circle id="Oval-66-Copy" cx="16" cy="16" r="16"></circle>
                        </g>
                        <g id="iconfont-erweima" transform="translate(8.960000, 8.960000)" fill="#011136">
                            <g id="图形">
                                <path d="M0.73813599,0.325804462 L6.11842236,0.325804462 C6.66554166,0.379299317 6.53367373,1.33012595 6.53367373,1.94787638 L6.53367373,4.88898797 C6.53367373,5.5282153 6.65559792,6.31167476 6.22673721,6.49322827 C5.94745924,6.61148283 5.19790607,6.52889151 4.83653221,6.52889151 L1.98390342,6.52889151 C1.32447044,6.52889151 0.424068238,6.6842832 0.322884625,6.11890904 L0.322884625,0.735786925 C0.396609637,0.535270048 0.526318206,0.390011448 0.73813599,0.325804462 L0.73813599,0.325804462 Z M1.47838523,1.53789391 L1.47838523,5.37025743 L5.36011176,5.37025743 L5.36011176,1.48441222 L1.49643326,1.48441222 C1.47539944,1.48741267 1.47682569,1.51260065 1.47838523,1.53789391 L1.47838523,1.53789391 Z M7.95998812,0.325804462 L13.3402478,0.325804462 C13.55973,0.406198083 13.7105257,0.554404493 13.7554992,0.807073919 L13.7554992,6.04760889 C13.7062737,6.26537835 13.5910942,6.45140622 13.3763572,6.51105989 C13.0254203,6.60854818 12.4422982,6.52887835 12.0222749,6.52887835 L9.25991298,6.52887835 C8.84332867,6.52887835 8.22597666,6.61552291 7.88776934,6.51105989 C7.41036289,6.36359043 7.54473676,5.44349209 7.54473676,4.7998562 L7.54473676,2.05481345 C7.54472343,1.31168898 7.37950529,0.429635804 7.95998812,0.325804462 L7.95998812,0.325804462 Z M8.70021071,1.53789391 L8.70021071,5.37025743 L12.5819506,5.37025743 L12.5819506,1.48441222 L8.7182854,1.48441222 C8.69723825,1.48741267 8.69866449,1.51260065 8.70021071,1.53789391 L8.70021071,1.53789391 Z M3.24773221,2.66086475 C3.78834675,2.56013914 4.21348854,2.92077211 4.22268584,3.40951637 C4.23480228,4.0540208 3.56805146,4.40808699 3.0491372,4.14033636 C2.45547158,3.83401416 2.4945401,2.80120156 3.24773221,2.66086475 L3.24773221,2.66086475 Z M10.4695843,2.66086475 C11.742997,2.42598747 11.7185642,4.41702254 10.4695843,4.21163651 C9.67472447,4.08095905 9.64906534,2.81221637 10.4695843,2.66086475 L10.4695843,2.66086475 Z M6.08231297,13.7658045 L0.756197352,13.7658045 C0.535088963,13.6989129 0.385732832,13.5611817 0.322897954,13.3380167 L0.322897954,7.97269988 C0.375482509,7.81568952 0.49688685,7.6325305 0.683978564,7.58056219 C1.03739476,7.48237643 1.61469186,7.56274374 2.03807417,7.56274374 L4.80043615,7.56274374 C5.20867624,7.56274374 5.80282173,7.47278289 6.17256646,7.58056219 C6.67280619,7.72637351 6.53367373,8.63153541 6.53367373,9.2739211 L6.53367373,12.1080825 C6.53367373,12.8014232 6.68489598,13.7039136 6.08231297,13.7658045 L6.08231297,13.7658045 Z M1.47838523,8.77483319 L1.47838523,12.6071835 L5.36011176,12.6071835 L5.36011176,8.72135149 L1.49643326,8.72135149 C1.47539944,8.72435194 1.47682569,8.74952677 1.47838523,8.77483319 L1.47838523,8.77483319 Z M13.7554992,8.04401319 L13.7554992,9.54130326 C13.7133782,10.0463526 13.7494743,10.6285977 13.7374512,11.163362 L9.89182071,11.163362 L9.89182071,10.2899417 C9.53072677,10.248396 9.09142913,10.2840066 8.70022403,10.2721233 C8.65810307,11.4010424 8.69421247,12.6071835 8.682176,13.7658045 L7.97803616,13.7658045 C7.37260065,13.6460102 7.54472343,12.7490864 7.54472343,12.0367692 L7.54472343,9.2739211 C7.54472343,8.85850361 7.45956178,8.23571296 7.56278479,7.90141289 C7.68592196,7.50255051 8.21997843,7.56274374 8.75438146,7.56274374 L11.3722792,7.56274374 L11.3722792,9.9334541 L12.5819372,9.9334541 C12.5939604,9.14913925 12.5578643,8.31731729 12.5999986,7.56274374 C13.1821209,7.52872548 13.7213092,7.53709516 13.7554992,8.04401319 L13.7554992,8.04401319 Z M3.33799903,9.87998557 C3.91525614,9.81689717 4.39243598,10.364624 4.16850176,10.9672932 C3.85811293,11.802642 2.3740155,11.4887002 2.65193387,10.4325552 C2.72875131,10.1406036 2.95064613,9.9223077 3.33799903,9.87998557 L3.33799903,9.87998557 Z M11.1917589,13.7658045 L9.89182071,13.7658045 C9.90385717,13.3082886 9.86776111,12.8032787 9.90988207,12.3754515 L11.1917589,12.3754515 L11.1917589,13.7658045 L11.1917589,13.7658045 Z M13.7554992,12.3754515 L13.7554992,13.284535 C13.7053006,13.5380203 13.5551847,13.6928067 13.3221731,13.7658045 L12.4014036,13.7658045 C12.4134401,13.3082886 12.377344,12.8032787 12.419465,12.3754515 L13.7554992,12.3754515 L13.7554992,12.3754515 Z" id="Shape"></path>
                            </g>
                        </g>
                    </g>
                </g>
            </g>
        </g>
    </g>
</svg>