<?xml version="1.0" encoding="UTF-8" standalone="no"?>
<svg width="30px" height="32px" viewBox="0 0 30 32" version="1.1" xmlns="http://www.w3.org/2000/svg" xmlns:xlink="http://www.w3.org/1999/xlink">
    <!-- Generator: Sketch 3.7 (28169) - http://www.bohemiancoding.com/sketch -->
    <title>logo</title>
    <desc>Created with Sketch.</desc>
    <defs></defs>
    <g id="官网优化" stroke="none" stroke-width="1" fill="none" fill-rule="evenodd">
        <g id="pc" transform="translate(-131.000000, -14.000000)" fill="#FFFFFF">
            <g id="logo" transform="translate(131.000000, 14.000000)">
                <path d="M25.7049194,12.080303 C25.7029609,13.696946 25.2867861,13.8475681 23.3469216,13.8450238 L11.2993937,13.8282315 L11.3106549,5.12522706 L23.3581828,5.14201938 C25.207468,5.14456368 25.7132429,5.60711592 25.7112844,7.29449022 L25.7049194,12.080303 Z M25.688762,24.6893041 C25.6868035,26.3059471 25.2701391,26.4575869 23.3307642,26.4545338 L11.2832363,26.4377414 L11.2944975,17.7342282 L23.3420254,17.7510205 C25.1913107,17.7535648 25.6970855,18.2166259 25.6946374,19.9040002 L25.688762,24.6893041 Z M7.37657841,9.31262244 C7.37657841,9.40319923 7.30313579,9.48003684 7.21598387,9.47952798 L3.84790519,9.47494826 C3.76026366,9.47494826 3.68633142,9.39811065 3.68633142,9.307025 L3.69171721,5.28500858 C3.69171721,5.18985207 3.7754418,5.14558139 3.85329098,5.14609025 L7.22136967,5.15066998 C7.29872923,5.15066998 7.3819642,5.19494065 7.3819642,5.29060602 L7.37657841,9.31262244 Z M7.36580682,17.7103118 C7.36580682,17.8013975 7.2923642,17.8782351 7.20521229,17.8782351 L3.8371336,17.8736554 C3.74900245,17.8731465 3.67555983,17.7963089 3.67555983,17.7052233 L3.68094562,13.6842246 C3.68094562,13.5885592 3.76467021,13.5447974 3.84251939,13.5447974 L7.21059808,13.5493771 C7.28795764,13.5493771 7.37119262,13.5936478 7.37119262,13.6893131 L7.36580682,17.7103118 Z M7.35503524,26.3644658 C7.35454562,26.4550426 7.281103,26.5313714 7.19395109,26.5308625 L3.8258724,26.5262828 C3.73823087,26.5262828 3.66429863,26.4494452 3.66429863,26.3593773 L3.66968442,22.336852 C3.66968442,22.2411866 3.75340901,22.1974248 3.83125819,22.1974248 L7.19933688,22.2020045 C7.27669644,22.2025134 7.35993142,22.2462752 7.35993142,22.3419406 L7.35503524,26.3644658 Z M29.5557609,17.3067872 C29.3530593,16.7892782 28.845326,16.3165488 28.1530068,15.9669631 C28.8986943,15.5736156 29.3535489,15.1125899 29.5591882,14.6113645 C29.6336101,14.3279304 29.6840407,14.0439874 29.6678833,13.7142472 C29.6737587,13.6150198 29.6732691,13.5117216 29.6659249,13.4038436 L29.6815926,1.27418704 L29.6815926,1.02535531 C29.6820822,0.752098375 29.5508647,0.428973321 29.3667686,0.264103214 C29.1557434,0.0722636155 28.8384713,0.0381701058 28.6024757,0.0381701058 L25.7695489,0.034099239 C25.7695489,0.034099239 25.0008494,1.01874015 23.5016407,1.01670472 L10.9527445,0.999403534 L10.9537238,0.262576639 L10.9537238,0.0132360466 L7.76092814,0.00916517974 L7.76043852,0.257996914 L7.7599489,0.648291271 C7.75945928,0.960221441 7.56654999,1.03146161 7.36433797,1.03095275 L3.99576967,1.02637303 C3.79306803,1.02637303 3.60015874,0.954623999 3.60015874,0.642693829 L3.60064835,0.251890614 L3.60113797,0.0030588795 L1.12024617,5.72938819e-06 C0.855852727,-0.000503128965 0.566488792,0.032572664 0.381413382,0.223903405 C0.170877863,0.387755794 0.0391707593,0.71037199 0.0386811418,0.984137784 L0.0381915243,1.23296952 L0.000490977877,30.6027471 L1.3603908e-06,30.8515788 C-0.000488257096,31.1248357 0.131218847,31.4479608 0.341264748,31.6128309 C0.525360923,31.8051794 0.814724858,31.838764 1.0791183,31.8392729 L3.5600101,31.8428349 L3.56049972,31.5940031 L3.56098934,31.2031999 C3.56147896,30.8907609 3.75438825,30.8200296 3.95708988,30.8200296 L7.32565819,30.8251182 C7.52835983,30.8251182 7.72126912,30.8968672 7.7207795,31.2087974 L7.72028988,31.6001094 L7.71980027,31.8484323 L10.9125959,31.853012 L10.9130855,31.6046892 L10.9140647,30.8663357 L23.4629609,30.8841457 C24.9626593,30.8861812 25.7289107,31.8733664 25.7289107,31.8733664 L28.5613478,31.8774372 C28.7973434,31.8779461 29.1146156,31.8448703 29.3261303,31.6530307 C29.5107161,31.4891783 29.6429128,31.1665621 29.6434025,30.8927963 L29.6434025,30.6439646 L29.6590702,18.5148169 C29.6669041,18.4064301 29.6678833,18.3036407 29.6620079,18.2039044 C29.6791445,17.8746731 29.6296932,17.5897124 29.5557609,17.3067872 L29.5557609,17.3067872 Z" id="Fill-1"></path>
            </g>
        </g>
    </g>
</svg>